<svg xmlns="http://www.w3.org/2000/svg" width="173.355" height="48" viewBox="0 0 173.355 48">
  <g id="Layer_2" data-name="Layer 2" transform="translate(-2139.87 -309.26)">
    <g id="Layer_1-2" data-name="Layer 1-2" transform="translate(2139.87 309.26)">
      <path id="Path_302" data-name="Path 302" d="M1879.768,91.575h5.053v1.686h-5.053a6.67,6.67,0,0,0-6.688,6.651v.038a6.67,6.67,0,0,0,6.651,6.695h.038a6.613,6.613,0,0,0,6.676-6.676V91.575h1.68v16.749h-1.68v-3.442a6.38,6.38,0,0,1-.777.846,8.337,8.337,0,1,1-5.9-14.179Z" transform="translate(-1813.585 -74.15)" fill="#fff"/>
      <path id="Path_303" data-name="Path 303" d="M1908.935,108.259h-5.015v-1.705h5.015a7.064,7.064,0,1,0-6.695-6.695v15.069h-1.68V91.56h1.68v3.328a10.542,10.542,0,0,1,.8-.891,8.375,8.375,0,1,1,5.9,14.312Z" transform="translate(-1824.335 -74.154)" fill="#fff"/>
      <path id="Path_304" data-name="Path 304" d="M1938.115,108.259h-5.053v-1.705h5.053a6.682,6.682,0,0,0,6.695-6.657v-.038a6.669,6.669,0,0,0-6.657-6.688h-.038a6.707,6.707,0,0,0-6.714,6.688v15.069h-1.661V91.56h1.661v3.328q.379-.461.8-.891a8.375,8.375,0,1,1,5.937,14.312h0Z" transform="translate(-1835.085 -74.154)" fill="#fff"/>
      <path id="Path_305" data-name="Path 305" d="M1960.576,86.14v1.667h-1.686V86.14Zm0,20.1h-1.686V89.582h1.686Z" transform="translate(-1845.825 -72.157)" fill="#fff"/>
      <path id="Path_306" data-name="Path 306" d="M1965.876,108.217h-1.686V91.537h1.686Zm15.063-8.375v8.375H1979.3v-8.4a6.688,6.688,0,0,0-11.432-4.737l-.291.291V93.1a8.394,8.394,0,0,1,13.4,6.714Z" transform="translate(-1847.777 -74.111)" fill="#fff"/>
      <path id="Path_307" data-name="Path 307" d="M1995.02,86.14v1.667h-1.68V86.14Zm0,20.1h-1.68V89.582h1.68Z" transform="translate(-1858.517 -72.157)" fill="#fff"/>
      <path id="Path_308" data-name="Path 308" d="M2007.026,91.589a8.577,8.577,0,1,1-8.356,9.183c0-.272,0-.537,0-.808a8.368,8.368,0,0,1,8.337-8.375Zm0,15.069a7.064,7.064,0,1,0-6.688-6.695,6.669,6.669,0,0,0,6.651,6.695Z" transform="translate(-1860.481 -74.163)" fill="#fff"/>
      <path id="Path_309" data-name="Path 309" d="M2029.524,108.22h-1.6V91.54h1.661Zm15.088-8.375v8.375h-1.686v-8.4a6.67,6.67,0,0,0-6.651-6.688h-.038a6.38,6.38,0,0,0-4.737,1.933l-.291.347V93.106a8.4,8.4,0,0,1,13.4,6.714Z" transform="translate(-1871.257 -74.115)" fill="#fff"/>
      <path id="Path_310" data-name="Path 310" d="M1803.87,64a24,24,0,0,0,0,48h24V88A24,24,0,0,0,1803.87,64Zm8.88,29.886h-17.684V91.947h17.684Zm0-4.895h-17.684V87.059h17.684Zm0-4.914h-17.684V82.164h17.684Z" transform="translate(-1779.87 -64)" fill="#fff"/>
    </g>
  </g>
</svg>
